# xmcd
#
# Track frame offsets:
#	150
#	14629
#	27464
#	44363
#	58493
#	72037
#	86116
#	99892
#	108572
#	118839
#	131012
#	140342
#	154952
#	164921
#	180227
#	194489
#	206251
#	218626
#	230823
#	243590
#	256809
#	268596
#	280832
#	292676
#	306126
#
# Disc length: 4199 seconds
# Revision: 0
# Processed by: cddbd v1.5.2PL0 Copyright (c) Steve Scherf et al.
# Submitted via: dBpowerAMP V12.0
#
DISCID=7a106519
DTITLE=Various Artist - The Legendary Music Box - CD 05
DYEAR=1900
DGENRE=
TTITLE0=Dean Martin - That's Amore
TTITLE1=Guy Mitchell and Mitch Miller - My Heart Cries For You
TTITLE2=Frank Sinatra - This Love Of Mine
TTITLE3=Doris Day - I'll Never Stop Loving You
TTITLE4=Billy Vaughn - Melody Of Love
TTITLE5=Alma Cogan - I Went To Your Wedding
TTITLE6=Bing Crosby with Grace Kelly - True Love
TTITLE7=Fats Domino - Please Don't Leave Me
TTITLE8=Jo Stafford and Gordon McRae - Tea For Two
TTITLE9=Perry Como - Ko Ko Mo (I Love You So)
TTITLE10=The Four Knights - I Get So Lonely (Oh Baby Mine)
TTITLE11=David Whitfield - Cara Mia
TTITLE12=Carl Smith with June Carter - Time's A Wastin'
TTITLE13=Don Cornell and Hugo Winterhalter Orchestra - I Need You So
TTITLE14=Ella Fitzgerald - Goodnight, My Love
TTITLE15=Frankie Lane - Rose, Rose, I Love You
TTITLE16=Jaye P. Morgan - That's All I Want From You
TTITLE17=Joni James - You Are My Love
TTITLE18=Kitty Wells and Red FoleyY - You And Me
TTITLE19=Les Paul and Mary Ford - Vaya Con Dios
TTITLE20=Frank Sinatra - The Girl Next Door
TTITLE21=The Platters - Only You
TTITLE22=Pat Boone with Billy Vaughn - Two Hearts
TTITLE23=Dean Martin and Margaret Whiting - I'm In Love With You
TTITLE24=The Four Coins - I Love You Madly
EXTD=
EXTT0=
EXTT1=
EXTT2=
EXTT3=
EXTT4=
EXTT5=
EXTT6=
EXTT7=
EXTT8=
EXTT9=
EXTT10=
EXTT11=
EXTT12=
EXTT13=
EXTT14=
EXTT15=
EXTT16=
EXTT17=
EXTT18=
EXTT19=
EXTT20=
EXTT21=
EXTT22=
EXTT23=
EXTT24=
PLAYORDER=
